<?xml version="1.0" encoding="UTF-8"?>
<svg width="21px" height="20px" viewBox="0 0 21 20" version="1.1" xmlns="http://www.w3.org/2000/svg" xmlns:xlink="http://www.w3.org/1999/xlink">
  <title>7DC24C0F-8077-4F01-BA35-E9F9DB1840E9</title>
  <defs>
    <filter color-interpolation-filters="auto" id="filter-1">
      <feColorMatrix in="SourceGraphic" type="matrix" values="0 0 0 0 0.976471 0 0 0 0 0.976471 0 0 0 0 0.976471 0 0 0 1.000000 0"></feColorMatrix>
    </filter>
  </defs>
  <g id="Phone-/-Portrait" stroke="none" stroke-width="1" fill="none" fill-rule="evenodd">
    <g id="Phone-/-Portrait-/-Home" transform="translate(-325.000000, -22.000000)">
      <g id="Avtar" transform="translate(-0.448463, 0.000000)">
        <g id="Group" transform="translate(0.448463, 0.000000)">
          <g id="Anountcements" transform="translate(324.761200, 20.738800)" filter="url(#filter-1)">
            <g>
              <path d="M20.1666667,2 C20.626904,2 21,2.37309604 21,2.83333333 L21,2.83333333 L21,19.5 C21,19.9602373 20.626904,20.3333333 20.1666667,20.3333333 C19.7064294,20.3333333 19.3333333,19.9602373 19.3333333,19.5 L19.3333333,19.5 L19.3333333,18.8616667 L13.0833333,16.9033333 L13.0833333,16.9866667 C13.0888785,19.0555032 11.4196429,20.7389007 9.35083333,20.7508333 L9.35083333,20.7508333 L9.33333333,20.7508333 C7.26969859,20.7485747 5.59478402,19.0811042 5.58333333,17.0175 L5.58333333,17.0175 L5.58333333,14.8583333 C5.5833444,14.6763583 5.46525978,14.5154258 5.29166667,14.4608333 L5.29166667,14.4608333 L4.20833333,14.1208333 C4.03474022,14.0662408 3.91666659,13.9053084 3.91666659,13.7233333 L3.91666659,13.7233333 L3.91666659,8.75916667 C3.91666659,8.57839731 4.03301845,8.41817694 4.205,8.3625 L4.205,8.3625 L19.3333333,3.47833333 L19.3333333,2.83333333 C19.3333333,2.37309604 19.7064294,2 20.1666667,2 Z M7.79166667,15.2441667 C7.66509186,15.2043607 7.52712598,15.2272198 7.42015313,15.3057214 C7.31318028,15.384223 7.25,15.5089802 7.25,15.6416667 L7.25,15.6416667 L7.25,17.0141667 C7.2573306,18.1595495 8.18792705,19.0841667 9.33333333,19.0841667 L9.33333333,19.0841667 L9.34333333,19.0841667 C9.89586967,19.0815209 10.4247238,18.8594859 10.8135506,18.4669084 C11.2023774,18.0743309 11.4193252,17.5433696 11.4166908,16.9908333 L11.4166908,16.9908333 L11.4166908,16.6866667 C11.4166908,16.5046916 11.2985931,16.3437592 11.125,16.2891667 L11.125,16.2891667 Z M1.83333333,7.41666667 L1.9378649,7.42315952 C2.34876235,7.47458169 2.66666667,7.82516558 2.66666667,8.25 L2.66666667,8.25 L2.66666667,14.1033333 C2.65580576,14.5557416 2.28587194,14.916797 1.83333333,14.9166667 L1.835,14.916 L1.72796335,14.9094396 C1.58349595,14.8902868 1.44650573,14.8335436 1.33080874,14.7449328 L1.24824435,14.672589 C1.09196403,14.5163087 1.00416667,14.3043471 1.00416667,14.0833333 L1.00416667,14.0833333 L1,8.25 C1,7.78976271 1.37309604,7.41666667 1.83333333,7.41666667 L1.83333333,7.41666667 Z" id="Icon-Style" fill="#424242"></path>
            </g>
          </g>
        </g>
      </g>
    </g>
  </g>
</svg>
